<svg width="59" height="59" viewBox="0 0 59 59" fill="none" xmlns="http://www.w3.org/2000/svg">
<path d="M25.2792 30.8752L17.948 36.2028C16.2626 35.2009 14.287 34.6204 12.171 34.6204C9.28724 34.6204 6.66561 35.6972 4.68066 37.4761V15.8945L25.2792 30.8752Z" fill="#0033FF"/>
<path d="M53.367 15.8945V43.5152L49.6219 42.1108H48.2174L32.7686 30.8752L53.367 15.8945Z" fill="#0033FF"/>
<path d="M48.2187 42.1105H27.152H22.7608C22.5361 41.4551 22.2458 40.8278 21.8994 40.2286C20.9444 38.5807 19.5774 37.195 17.9482 36.2025L25.2794 30.875H32.7698L48.2187 42.1105Z" fill="#0033FF"/>
<path d="M53.368 15.8948L32.7695 30.8755H25.2792L4.68066 15.8948L25.5975 1.95335C26.6087 1.27922 27.8071 0.914062 29.0243 0.914062C30.2415 0.914062 31.44 1.27922 32.4512 1.95335L53.368 15.8948Z" fill="#0033FF"/>
<path d="M27.1523 45.8555H49.6234V49.6006H27.1523V45.8555Z" fill="#B4DD7F"/>
<path d="M49.6234 42.1113V45.8565H27.1523V42.1113H48.219H49.6234Z" fill="#F5F7FA"/>
<path d="M27.15 45.8565V49.6017H22.7588C23.1801 48.4313 23.4048 47.1673 23.4048 45.8565C23.4048 44.5457 23.1801 43.2817 22.7588 42.1113H27.15V45.8565Z" fill="#CCD1D9"/>
<path d="M12.1701 57.0922C18.3753 57.0922 23.4056 52.0618 23.4056 45.8566C23.4056 39.6514 18.3753 34.6211 12.1701 34.6211C5.96489 34.6211 0.93457 39.6514 0.93457 45.8566C0.93457 52.0618 5.96489 57.0922 12.1701 57.0922Z" fill="#69D6F4"/>
<path d="M56.2343 44.5925C56.768 44.7891 57.1144 45.2947 57.1144 45.8565C57.1144 46.4183 56.768 46.9239 56.2343 47.1205L49.624 49.6017V45.8565V42.1113L53.3692 43.5158L56.2343 44.5925Z" fill="#CCD1D9"/>
<path d="M56.5663 43.7147L54.3051 42.8673V15.3946L32.9754 1.17411C30.629 -0.391371 27.4213 -0.391371 25.0749 1.17411L3.74518 15.3946V37.0941C1.44189 39.3103 0 42.416 0 45.8569C0 52.5683 5.46047 58.0288 12.1718 58.0288C17.225 58.0288 21.5666 54.9324 23.4046 50.5384H49.7931L56.5663 47.9982C57.4539 47.6649 58.0503 46.8045 58.0503 45.8569C58.0503 44.9094 57.4539 44.0489 56.5663 43.7147V43.7147ZM49.7931 41.1754H48.5235L34.362 30.8762L52.4325 17.7344V42.1651L49.7931 41.1754ZM12.1718 56.1562C11.1653 56.1562 10.0933 54.7264 9.35452 52.411H14.9891C14.2504 54.7264 13.1784 56.1562 12.1718 56.1562ZM8.87701 50.5384C8.64856 49.4064 8.495 48.148 8.44632 46.7932H15.8974C15.8487 48.148 15.6942 49.4064 15.4667 50.5384H8.87701ZM1.92034 46.7932H6.57466C6.61773 48.1218 6.74694 49.3802 6.95761 50.5384H3.00925C2.42313 49.3952 2.04112 48.1321 1.92034 46.7932V46.7932ZM8.69443 36.1747C8.17666 37.0351 7.7366 38.0904 7.39205 39.3029H4.23299C5.40055 37.8919 6.93982 36.8067 8.69443 36.1747ZM20.1107 39.3029H16.9516C16.6071 38.0904 16.167 37.0351 15.6492 36.1747C17.4038 36.8067 18.9431 37.8919 20.1107 39.3029ZM17.769 44.9206C17.7259 43.592 17.5967 42.3336 17.3861 41.1754H21.3344C21.9205 42.3187 22.3025 43.5817 22.4243 44.9206H17.769ZM15.8974 44.9206H8.44632C8.495 43.5658 8.64949 42.3074 8.87701 41.1754H15.4667C15.6951 42.3074 15.8487 43.5658 15.8974 44.9206ZM14.9891 39.3029H9.35452C10.0933 36.9874 11.1663 35.5577 12.1718 35.5577C13.1774 35.5577 14.2504 36.9874 14.9891 39.3029ZM6.95761 41.1754C6.74694 42.3336 6.6168 43.592 6.57466 44.9206H1.92034C2.04206 43.5817 2.42313 42.3187 3.01019 41.1754H6.95761ZM17.769 46.7932H22.4233C22.3016 48.1321 21.9205 49.3952 21.3335 50.5384H17.3851C17.5967 49.3802 17.7269 48.1218 17.769 46.7932ZM19.5517 36.2L25.5843 31.8125H32.466L45.3401 41.1754H23.4046C22.5759 39.1952 21.2333 37.4883 19.5517 36.2V36.2ZM48.6873 43.048V44.9206H28.0888V43.048H48.6873ZM28.0888 46.7932H48.6873V48.6658H28.0888V46.7932ZM26.1142 2.73211C27.8435 1.57859 30.2077 1.57859 31.937 2.73211L51.7312 15.9282L32.466 29.9399H25.5843L6.31905 15.9292L26.1142 2.73211ZM5.61777 17.7344L23.6883 30.8762L17.8692 35.1083C16.1679 34.2029 14.2298 33.6851 12.1718 33.6851C9.75806 33.6851 7.51189 34.4004 5.61777 35.6167V17.7344ZM4.23299 52.411H7.39205C7.7366 53.6235 8.17666 54.6787 8.69443 55.5391C6.93982 54.9071 5.40055 53.822 4.23299 52.411ZM15.6492 55.5391C16.167 54.6787 16.6071 53.6235 16.9516 52.411H20.1107C18.9431 53.822 17.4038 54.9071 15.6492 55.5391V55.5391ZM24.0038 43.048H26.2163V48.6658H24.0038C24.2182 47.7623 24.3437 46.825 24.3437 45.8569C24.3437 44.8888 24.2182 43.9516 24.0038 43.048ZM55.908 46.2455L50.5599 48.251V43.4628L55.9071 45.4674C56.0691 45.5283 56.1777 45.6846 56.1777 45.8569C56.1777 46.0292 56.0691 46.1856 55.908 46.2455Z" fill="black"/>
<path d="M36.9443 10.5684L37.9836 9.01036L44.5373 13.3821L43.498 14.9401L36.9443 10.5684Z" fill="black"/>
<path d="M45.3652 16.1797L46.4044 14.6219L48.2769 15.871L47.2377 17.4288L45.3652 16.1797Z" fill="black"/>
<path d="M29.0248 22.4495V20.5769C26.4434 20.5769 24.3433 18.4768 24.3433 15.8954V14.0228C24.3433 11.4414 26.4434 9.34134 29.0248 9.34134C31.6061 9.34134 33.7062 11.4414 33.7062 14.0228V19.6406C33.7062 20.1574 33.2858 20.5769 32.7699 20.5769C32.254 20.5769 31.8337 20.1574 31.8337 19.6406V15.8954V14.9591V14.0228C31.8337 12.4742 30.5734 11.2139 29.0248 11.2139C27.4761 11.2139 26.2159 12.4742 26.2159 14.0228V15.8954C26.2159 17.444 27.4761 18.7043 29.0248 18.7043C29.3543 18.7043 29.6671 18.6369 29.9611 18.532V19.6406C29.9611 21.1892 31.2213 22.4495 32.7699 22.4495C34.3186 22.4495 35.5788 21.1892 35.5788 19.6406V14.0228C35.5788 10.4097 32.6389 7.46875 29.0248 7.46875C25.4107 7.46875 22.4707 10.4097 22.4707 14.0228V15.8954C22.4707 19.5086 25.4107 22.4495 29.0248 22.4495ZM29.0248 16.8317C28.5089 16.8317 28.0885 16.4122 28.0885 15.8954V14.0228C28.0885 13.506 28.5089 13.0865 29.0248 13.0865C29.5407 13.0865 29.9611 13.506 29.9611 14.0228V14.9591V15.8954C29.9611 16.4122 29.5407 16.8317 29.0248 16.8317Z" fill="black"/>
<path d="M7.49023 26.1953H9.36282V28.0679H7.49023V26.1953Z" fill="black"/>
<path d="M7.49023 22.4492H9.36282V24.3218H7.49023V22.4492Z" fill="black"/>
<path d="M7.49023 29.9395H9.36282V31.812H7.49023V29.9395Z" fill="black"/>
</svg>
