<svg width="88" height="94" viewBox="0 0 88 94" fill="none" xmlns="http://www.w3.org/2000/svg">
<rect x="4" y="4" width="80" height="86" rx="40" fill="white"/>
<rect x="4" y="4" width="80" height="86" rx="40" stroke="white" stroke-width="8"/>
<path fill-rule="evenodd" clip-rule="evenodd" d="M43.9918 21.6504C38.1425 21.6537 32.485 23.898 28.0309 27.9821C23.5769 32.0662 20.6167 37.7237 19.6796 43.9431C18.7426 50.1624 19.8899 56.538 22.9163 61.9297C25.9427 67.3215 30.6509 71.378 36.199 73.3737C37.423 73.6198 37.884 72.798 37.884 72.0992C37.884 71.4004 37.8595 69.3744 37.8514 67.1593C30.997 68.7635 29.5486 64.0258 29.5486 64.0258C28.4306 60.9494 26.8149 60.1407 26.8149 60.1407C24.5791 58.497 26.9822 58.5278 26.9822 58.5278C29.4588 58.7168 30.7603 61.2658 30.7603 61.2658C32.9554 65.3223 36.5254 64.1489 37.9289 63.4632C38.1492 61.7449 38.7898 60.5758 39.4956 59.9122C34.0203 59.2442 28.2674 56.9676 28.2674 46.7979C28.2335 44.1604 29.1421 41.6098 30.8052 39.6738C30.5522 39.0058 29.7077 36.3073 31.0459 32.642C31.0459 32.642 33.1145 31.93 37.8228 35.3624C41.8614 34.1728 46.1223 34.1728 50.1608 35.3624C54.8651 31.93 56.9295 32.642 56.9295 32.642C58.2719 36.2985 57.4273 38.997 57.1744 39.6738C58.8427 41.6101 59.7532 44.1652 59.7162 46.8067C59.7162 56.9984 53.9511 59.2442 48.4676 59.899C49.3489 60.7252 50.1363 62.3382 50.1363 64.8169C50.1363 68.3679 50.1078 71.2246 50.1078 72.0992C50.1078 72.8068 50.5525 73.633 51.801 73.3737C57.3497 71.3777 62.0584 67.3206 65.0847 61.9279C68.1111 56.5352 69.2577 50.1586 68.3196 43.9387C67.3815 37.7188 64.4199 32.0612 59.9643 27.9779C55.5088 23.8945 49.85 21.6516 44 21.6504H43.9918Z" fill="#0033FF"/>
<path d="M28.6829 59.758C28.6299 59.8899 28.4341 59.9294 28.2749 59.8371C28.1158 59.7448 27.9975 59.5734 28.0546 59.4372C28.1118 59.301 28.3035 59.2658 28.4626 59.3581C28.6218 59.4504 28.7441 59.6262 28.6829 59.758Z" fill="white"/>
<path d="M29.6828 60.9576C29.5983 61.0035 29.5017 61.0163 29.4094 60.9938C29.3171 60.9714 29.2349 60.9151 29.1769 60.8346C29.0178 60.65 28.9851 60.3951 29.1075 60.2808C29.2299 60.1666 29.4503 60.2193 29.6094 60.4039C29.7685 60.5885 29.8052 60.8434 29.6828 60.9576Z" fill="white"/>
<path d="M30.6542 62.4825C30.5032 62.5968 30.2462 62.4825 30.1034 62.254C30.0639 62.213 30.0325 62.1639 30.011 62.1095C29.9896 62.0551 29.9785 61.9966 29.9785 61.9376C29.9785 61.8785 29.9896 61.82 30.011 61.7657C30.0325 61.7113 30.0639 61.6621 30.1034 61.6211C30.2543 61.5113 30.5114 61.6211 30.6542 61.8453C30.797 62.0694 30.8011 62.3683 30.6542 62.4825Z" fill="white"/>
<path d="M31.9715 63.9606C31.8368 64.1232 31.5635 64.0792 31.3391 63.8595C31.1147 63.6398 31.0616 63.3409 31.1963 63.1827C31.3309 63.0245 31.6043 63.0684 31.8368 63.2838C32.0694 63.4991 32.1143 63.8024 31.9715 63.9606Z" fill="white"/>
<path d="M33.8193 64.8208C33.7581 65.0274 33.4807 65.1197 33.2033 65.0318C32.9258 64.9439 32.7422 64.6978 32.7953 64.4868C32.8483 64.2759 33.1298 64.1792 33.4113 64.2759C33.6929 64.3726 33.8724 64.6055 33.8193 64.8208Z" fill="white"/>
<path d="M35.835 64.9708C35.835 65.1862 35.6066 65.3707 35.3128 65.3751C35.019 65.3795 34.7783 65.2037 34.7783 64.9884C34.7783 64.773 35.0068 64.5885 35.3006 64.5841C35.5943 64.5797 35.835 64.7511 35.835 64.9708Z" fill="white"/>
<path d="M37.7119 64.6315C37.7486 64.8469 37.5446 65.071 37.2508 65.1238C36.9571 65.1765 36.7 65.049 36.6633 64.8381C36.6266 64.6271 36.8388 64.3986 37.1244 64.3415C37.41 64.2843 37.6752 64.4162 37.7119 64.6315Z" fill="white"/>
</svg>
