<svg width="88" height="94" viewBox="0 0 88 94" fill="none" xmlns="http://www.w3.org/2000/svg">
<rect x="4" y="4" width="80" height="86" rx="40" fill="white"/>
<rect x="4" y="4" width="80" height="86" rx="40" stroke="white" stroke-width="8"/>
<path d="M60.8769 25.5508H27.1234C26.3482 25.5508 25.6046 25.8844 25.0564 26.4783C24.5082 27.0722 24.2002 27.8777 24.2002 28.7176V65.2839C24.2002 66.1238 24.5082 66.9293 25.0564 67.5232C25.6046 68.1171 26.3482 68.4508 27.1234 68.4508H60.8769C61.6522 68.4508 62.3958 68.1171 62.944 67.5232C63.4922 66.9293 63.8002 66.1238 63.8002 65.2839V28.7176C63.8002 27.8777 63.4922 27.0722 62.944 26.4783C62.3958 25.8844 61.6522 25.5508 60.8769 25.5508ZM36.0032 62.0962H30.0494V41.6085H36.0032V62.0962ZM33.0222 38.7693C32.3468 38.7652 31.6878 38.5445 31.1281 38.1349C30.5685 37.7254 30.1333 37.1455 29.8776 36.4683C29.622 35.7911 29.5572 35.047 29.6914 34.33C29.8257 33.613 30.1531 32.9551 30.6322 32.4394C31.1112 31.9237 31.7206 31.5733 32.3833 31.4325C33.046 31.2916 33.7324 31.3666 34.3559 31.6479C34.9793 31.9293 35.5118 32.4044 35.8863 33.0133C36.2607 33.6222 36.4602 34.3376 36.4597 35.0692C36.4661 35.5591 36.3813 36.0453 36.2106 36.4989C36.0398 36.9525 35.7865 37.3642 35.4657 37.7095C35.1449 38.0548 34.7632 38.3265 34.3434 38.5086C33.9236 38.6907 33.4743 38.7794 33.0222 38.7693ZM57.9482 62.1141H51.9972V50.9214C51.9972 47.6205 50.7019 46.6016 49.0299 46.6016C47.2644 46.6016 45.5319 48.0435 45.5319 51.0048V62.1141H39.5782V41.6234H45.3037V44.4625H45.3807C45.9554 43.2023 47.9684 41.0484 51.0402 41.0484C54.3622 41.0484 57.9509 43.1845 57.9509 49.4407L57.9482 62.1141Z" fill="#0033FF"/>
</svg>
