<svg width="75" height="74" viewBox="0 0 75 74" fill="none" xmlns="http://www.w3.org/2000/svg">
<path d="M23.6171 27.1358C27.9643 39.8583 32.7176 44.8518 45.0446 49.9715L39.3956 57.6718C25.2574 51.2434 18.466 39.9403 15.3775 31.0589L23.6171 27.1358Z" fill="#0033FF"/>
<path d="M28.1449 9.28326C30.6823 9.20391 32.5466 11.2473 32.3002 13.6258C31.9125 17.3686 32.1189 20.0557 32.7958 23.3749C33.1676 25.1982 32.1404 27.0885 30.5625 28.3311C28.4357 30.006 26.7854 32.111 25.4695 33.9203C23.6456 36.4281 17.6362 36.4161 16.3889 33.7727C13.8255 28.3402 12.2867 18.2445 16.4908 11.28C17.1511 10.1861 18.4312 9.58702 19.7396 9.5461L28.1449 9.28326Z" fill="#0033FF"/>
<path d="M65.3973 48.9846C65.7858 46.6152 63.862 44.6216 61.3322 44.5665C57.3512 44.4799 54.5514 43.9632 51.1437 42.9294C49.2718 42.3616 47.1613 43.0973 45.6653 44.4273C43.649 46.2198 41.2377 47.514 39.1775 48.5301C36.3221 49.9385 35.612 55.574 38.2407 57.0613C43.6429 60.118 54.0703 62.7748 61.8968 59.6708C63.1262 59.1833 63.9098 58.0552 64.1102 56.8334L65.3973 48.9846Z" fill="#0033FF"/>
</svg>
