<svg width="88" height="94" viewBox="0 0 88 94" fill="none" xmlns="http://www.w3.org/2000/svg">
<rect x="4" y="4" width="80" height="86" rx="40" fill="white"/>
<rect x="4" y="4" width="80" height="86" rx="40" stroke="white" stroke-width="8"/>
<path d="M68.6571 33.6043C68.064 31.2177 66.327 29.3359 64.1239 28.6933C60.0991 27.5 43.9998 27.5 43.9998 27.5C43.9998 27.5 27.9004 27.5 23.8756 28.6474C21.7149 29.29 19.9355 31.2177 19.3424 33.6043C18.2832 37.9646 18.2832 47.0063 18.2832 47.0063C18.2832 47.0063 18.2832 56.0939 19.3424 60.4083C19.9355 62.7949 21.6725 64.6767 23.8756 65.3193C27.9428 66.5126 43.9998 66.5126 43.9998 66.5126C43.9998 66.5126 60.0991 66.5126 64.1239 65.3652C66.327 64.7226 68.064 62.8408 68.6571 60.4542C69.7163 56.094 69.7163 47.0522 69.7163 47.0522C69.7163 47.0522 69.7587 37.9646 68.6571 33.6043Z" fill="#0033FF"/>
<path d="M38.873 55.3589L52.2609 47.0056L38.873 38.6523V55.3589Z" fill="white"/>
</svg>
